<?xml version="1.0" encoding="utf-8"?>
<!-- Generator: Adobe Illustrator 24.2.1, SVG Export Plug-In . SVG Version: 6.00 Build 0)  -->
<svg version="1.1" id="Ebene_1" xmlns="http://www.w3.org/2000/svg" xmlns:xlink="http://www.w3.org/1999/xlink" x="0px" y="0px"
	 viewBox="0 0 190 50" style="enable-background:new 0 0 190 50;" xml:space="preserve">
<style type="text/css">
	.st0{clip-path:url(#SVGID_2_);}
	.st1{clip-path:url(#SVGID_4_);fill:#FFFFFF;}
	.st2{clip-path:url(#SVGID_6_);}
	.st3{clip-path:url(#SVGID_8_);fill:#FFFFFF;}
	.st4{clip-path:url(#SVGID_10_);}
	.st5{clip-path:url(#SVGID_12_);fill:#0C9AFF;}
	.st6{clip-path:url(#SVGID_14_);}
	.st7{clip-path:url(#SVGID_16_);fill:#00D38D;}
	.st8{clip-path:url(#SVGID_18_);}
	.st9{clip-path:url(#SVGID_20_);fill:#007F8D;}
	.st10{clip-path:url(#SVGID_22_);}
	.st11{clip-path:url(#SVGID_24_);fill:#002642;}
</style>
<g>
	<g>
		<defs>
			<path id="SVGID_1_" d="M72.7,25.3l6.7,12l-3.7,0l-5-8.9l-5.6,8.9l-2.9,0V12.7h3.2v18.2l11.3-18.2l3.8,0L72.7,25.3z M93.9,19.2
				l-4.6,11.7h9.2L93.9,19.2z M94.9,12.7l9.9,24.5h-3.5L100,34H88.1l-1.3,3.2h-3.5l9.9-24.5H94.9z M122.9,12.7V16h-6.4v21.3h-3.2V16
				h-6.4l0-2.7l0.1-0.5l0.5,0L122.9,12.7z M132.7,12.7v17.8c0,2,2.1,3.6,4.8,3.6c2.6,0,4.8-1.6,4.8-3.6V12.7h3.2v17.8
				c0,3.7-3.6,6.8-8,6.8c-4.4,0-8-3-8-6.8V12.7H132.7z M158.2,12.7V34h9.6v3.2H155V12.7H158.2z M186.9,12.7v17.8
				c0,2-2.1,3.6-4.8,3.6c-2.6,0-4.8-1.6-4.8-3.6V12.7h-3.2v17.8c0,3.7,3.6,6.8,8,6.8s8-3,8-6.8V12.7H186.9z"/>
		</defs>
		<clipPath id="SVGID_2_">
			<use xlink:href="#SVGID_1_"  style="overflow:visible;"/>
		</clipPath>
		<g class="st0">
			<defs>
				<rect id="SVGID_3_" x="-12.5" y="-12.4" width="215.1" height="74.8"/>
			</defs>
			<clipPath id="SVGID_4_">
				<use xlink:href="#SVGID_3_"  style="overflow:visible;"/>
			</clipPath>
			<rect x="61.3" y="11.8" class="st1" width="129.8" height="26.5"/>
		</g>
	</g>
	<g>
		<defs>
			<circle id="SVGID_5_" cx="24.9" cy="25" r="24.9"/>
		</defs>
		<clipPath id="SVGID_6_">
			<use xlink:href="#SVGID_5_"  style="overflow:visible;"/>
		</clipPath>
		<g class="st2">
			<defs>
				<rect id="SVGID_7_" x="-12.5" y="-12.4" width="215.1" height="74.8"/>
			</defs>
			<clipPath id="SVGID_8_">
				<use xlink:href="#SVGID_7_"  style="overflow:visible;"/>
			</clipPath>
			<rect x="-1.1" y="-0.9" class="st3" width="51.8" height="51.8"/>
		</g>
	</g>
	<g>
		<defs>
			<path id="SVGID_9_" d="M20.8,27.1c-0.2,0-1.7,0-4.5,0c-1.2,0-2.1-1-2.1-2.1c0-1.2,1-2.1,2.1-2.1c2.7,0,4.3,0,4.4,0
				c2,0,3.6,0.6,5.2,2.2l0,0l9,9c0.8,0.8,0.8,2.2,0,3c-0.8,0.8-2.2,0.8-3,0l-9-9C22.2,27.3,21.7,27.1,20.8,27.1"/>
		</defs>
		<clipPath id="SVGID_10_">
			<use xlink:href="#SVGID_9_"  style="overflow:visible;"/>
		</clipPath>
		<g class="st4">
			<defs>
				<rect id="SVGID_11_" x="-12.5" y="-12.4" width="215.1" height="74.8"/>
			</defs>
			<clipPath id="SVGID_12_">
				<use xlink:href="#SVGID_11_"  style="overflow:visible;"/>
			</clipPath>
			<rect x="13.2" y="21.9" class="st5" width="23.4" height="16.8"/>
		</g>
	</g>
	<g>
		<defs>
			<path id="SVGID_13_" d="M20.8,22.9c-0.2,0-1.7,0-4.5,0c-1.2,0-2.1,1-2.1,2.1c0,1.2,1,2.1,2.1,2.1c2.7,0,4.3,0,4.4,0
				c2,0,3.6-0.6,5.2-2.2l0,0l9-9c0.8-0.8,0.8-2.2,0-3c-0.8-0.8-2.2-0.8-3,0l-9,9C22.2,22.7,21.7,22.9,20.8,22.9"/>
		</defs>
		<clipPath id="SVGID_14_">
			<use xlink:href="#SVGID_13_"  style="overflow:visible;"/>
		</clipPath>
		<g class="st6">
			<defs>
				<rect id="SVGID_15_" x="-12.5" y="-12.4" width="215.1" height="74.8"/>
			</defs>
			<clipPath id="SVGID_16_">
				<use xlink:href="#SVGID_15_"  style="overflow:visible;"/>
			</clipPath>
			<rect x="13.2" y="11.4" class="st7" width="23.4" height="16.8"/>
		</g>
	</g>
	<g>
		<defs>
			<path id="SVGID_17_" d="M20.9,22.9L20.9,22.9c2,0,3.5,0.6,5.1,2.1c-1.6,1.5-3.1,2.1-5.1,2.1c0,0,0,0,0,0c0,0-0.1,0-0.1,0
				c-0.2,0-1.7,0-4.4,0c-1.2,0-2.1-1-2.1-2.1v0c0-1.2,1-2.1,2.1-2.1c2.7,0,4.3,0,4.4,0C20.8,22.9,20.8,22.9,20.9,22.9"/>
		</defs>
		<clipPath id="SVGID_18_">
			<use xlink:href="#SVGID_17_"  style="overflow:visible;"/>
		</clipPath>
		<g class="st8">
			<defs>
				<rect id="SVGID_19_" x="-12.5" y="-12.4" width="215.1" height="74.8"/>
			</defs>
			<clipPath id="SVGID_20_">
				<use xlink:href="#SVGID_19_"  style="overflow:visible;"/>
			</clipPath>
			<rect x="13.2" y="21.9" class="st9" width="13.7" height="6.2"/>
		</g>
	</g>
	<g>
		<defs>
			<path id="SVGID_21_" d="M14.1,14.5v21c0,1.2,1,2.1,2.1,2.1c1.2,0,2.1-1,2.1-2.1v-21c0-1.2-1-2.1-2.1-2.1
				C15.1,12.3,14.1,13.3,14.1,14.5"/>
		</defs>
		<clipPath id="SVGID_22_">
			<use xlink:href="#SVGID_21_"  style="overflow:visible;"/>
		</clipPath>
		<g class="st10">
			<defs>
				<rect id="SVGID_23_" x="-12.5" y="-12.4" width="215.1" height="74.8"/>
			</defs>
			<clipPath id="SVGID_24_">
				<use xlink:href="#SVGID_23_"  style="overflow:visible;"/>
			</clipPath>
			<rect x="13.2" y="11.4" class="st11" width="6.2" height="27.3"/>
		</g>
	</g>
</g>
</svg>
